<svg xmlns="http://www.w3.org/2000/svg" version="1.0" width="64" height="64" viewBox="0 0 128 128" xml:space="preserve"><g><path d="M56.9-.1h15.17V37H56.9V-.1z"/><path d="m89.901 4.938 13.138 7.585-18.55 32.13-13.138-7.586 18.55-32.13z" fill="#e5e5e5"/><path d="m115.962 25.801 7.585 13.138-32.13 18.55-7.584-13.138 32.13-18.55z" fill="#e5e5e5"/><path d="M128.1 56.9v15.17H91V56.9h37.1z" fill="#e5e5e5"/><path d="m123.062 89.901-7.585 13.138-32.13-18.55 7.586-13.138 32.13 18.55z" fill="#cecece"/><path d="m102.199 115.962-13.138 7.585-18.55-32.13 13.138-7.584 18.55 32.13z" fill="#b7b7b7"/><path d="M71.1 128.1H55.93V91H71.1v37.1z" fill="#9f9f9f"/><path d="m38.099 123.062-13.138-7.585 18.55-32.13 13.138 7.586-18.55 32.13z" fill="#898989"/><path d="M12.038 102.199 4.453 89.06l32.13-18.55 7.584 13.138-32.13 18.55z" fill="#727272"/><path d="M-.1 71.1V55.93H37V71.1H-.1z" fill="#5c5c5c"/><path d="m4.938 38.099 7.585-13.138 32.13 18.55-7.586 13.138-32.13-18.55z" fill="#444"/><path d="M25.801 12.038 38.94 4.453l18.55 32.13-13.138 7.584-18.55-32.13z" fill="#2e2e2e"/><animateTransform attributeName="transform" type="rotate" values="0 64 64;30 64 64;60 64 64;90 64 64;120 64 64;150 64 64;180 64 64;210 64 64;240 64 64;270 64 64;300 64 64;330 64 64" calcMode="discrete" dur="1080ms" repeatCount="indefinite"/></g></svg>